HIERARCHY
ROOT Elbow
{
	OFFSET	0.00	0.00	0.00
	CHANNELS 6 Xposition Yposition Zposition Zrotation Xrotation Yrotation
	JOINT L_Wrist
	{
		OFFSET	 0.208349	 0.000000	 0.000000
		CHANNELS 3 Zrotation Xrotation Yrotation
		JOINT L_index_Proximal
		{
			OFFSET	 0.093499	 0.010637	-0.002083
			CHANNELS 3 Zrotation Xrotation Yrotation
			JOINT L_index_b
			{
				OFFSET	 0.033152	 0.000000	 0.000000
				CHANNELS 3 Zrotation Xrotation Yrotation
				JOINT L_index_c
				{
					OFFSET	 0.018652	 0.000000	 0.000000
					CHANNELS 3 Zrotation Xrotation Yrotation
					End Site
					{
						OFFSET	 0.018652	 0.000000	 0.000000
					}
				}
			}
		}
		JOINT L_middle_Proximal
		{
			OFFSET	 0.090632	-0.006115	-0.003750
			CHANNELS 3 Zrotation Xrotation Yrotation
			JOINT L_middle_b
			{
				OFFSET	 0.037194	 0.000000	 0.000000
				CHANNELS 3 Zrotation Xrotation Yrotation
				JOINT L_middle_c
				{
					OFFSET	 0.021943	 0.000000	 0.000000
					CHANNELS 3 Zrotation Xrotation Yrotation
					End Site
					{
						OFFSET	 0.021943	 0.000000	 0.000000
					}
				}
			}
		}
		JOINT L_pinky_Proximal
		{
			OFFSET	 0.074015	-0.035449	-0.000417
			CHANNELS 3 Zrotation Xrotation Yrotation
			JOINT L_pinky_b
			{
				OFFSET	 0.027285	 0.000000	 0.000000
				CHANNELS 3 Zrotation Xrotation Yrotation
				JOINT L_pinky_c
				{
					OFFSET	 0.015093	 0.000000	 0.000000
					CHANNELS 3 Zrotation Xrotation Yrotation
					End Site
					{
						OFFSET	 0.015093	 0.000000	 0.000000
					}
				}
			}
		}
		JOINT L_ring_Proximal
		{
			OFFSET	 0.082801	-0.021859	-0.003750
			CHANNELS 3 Zrotation Xrotation Yrotation
			JOINT L_ring_b
			{
				OFFSET	 0.034478	 0.000000	 0.000000
				CHANNELS 3 Zrotation Xrotation Yrotation
				JOINT L_ring_c
				{
					OFFSET	 0.021377	 0.000000	 0.000000
					CHANNELS 3 Zrotation Xrotation Yrotation
					End Site
					{
						OFFSET	 0.021377	 0.000000	 0.000000
					}
				}
			}
		}
		JOINT L_thumb_Proximal
		{
			OFFSET	 0.030306	 0.018528	 0.004584
			CHANNELS 3 Zrotation Xrotation Yrotation
			JOINT L_thumb_a
			{
				OFFSET	 0.038520	 0.000000	 0.000000
				CHANNELS 3 Zrotation Xrotation Yrotation
				JOINT L_thumb_b
				{
					OFFSET	 0.026310	 0.000000	 0.000000
					CHANNELS 3 Zrotation Xrotation Yrotation
					End Site
					{
						OFFSET	 0.026310	 0.000000	 0.000000
					}
				}
			}
		}
	}
}
MOTION
Frames:    8
Frame Time: 0.01666667
-1.915917	-0.532672	 1.582414	-61.289330	 23.049760	 176.883700	 3.260419	 1.677458	 9.560514	-2.307193	 0.786051	-34.884820	-1.691121	 0.352193	-23.530290	 1.107165	-0.138263	-14.234140	-6.758669	-9.515222	-29.849010	 0.022350	-0.005192	-26.175300	 1.773885	-0.255548	-16.393920	-26.517430	-19.966550	-32.282980	 1.568802	-0.497016	-35.157770	 3.096654	-0.930094	-33.430260	-16.976520	-11.979700	-25.048140	 0.723405	-0.180342	-27.995990	 3.006472	-0.533739	-20.128870	 56.248230	 55.773300	-39.510130	-1.946703	 0.213236	-12.499570	 0.865000	-0.190480	-24.837390
-1.915479	-0.532620	 1.582968	-61.309490	 23.043100	 177.061600	 3.354145	 1.679946	 9.575069	-2.436821	 0.834924	-34.766700	-1.645738	 0.344832	-23.669740	 1.089824	-0.136663	-14.296020	-6.735594	-9.516715	-29.603620	 0.060464	-0.013985	-26.063010	 1.744825	-0.251386	-16.395280	-26.470950	-19.980500	-32.027370	 1.623087	-0.510031	-34.891500	 3.066425	-0.916988	-33.289570	-16.964960	-11.982080	-24.961100	 0.767633	-0.190837	-27.921850	 3.008507	-0.532036	-20.053450	 55.801460	 55.983810	-39.054230	-1.950390	 0.213584	-12.497530	 0.926534	-0.203844	-24.814980
-1.914679	-0.532760	 1.583650	-61.282270	 23.137250	 177.309400	 3.408812	 1.683478	 9.594941	-2.613439	 0.910847	-34.466170	-1.675113	 0.350963	-23.665450	 1.066131	-0.133603	-14.284360	-6.704909	-9.507723	-29.302680	 0.099215	-0.022790	-25.853510	 1.713758	-0.246770	-16.386810	-26.326940	-20.017680	-31.560310	 1.711710	-0.530751	-34.449090	 2.981603	-0.888056	-33.167570	-16.872170	-11.997850	-24.732870	 0.772084	-0.191029	-27.793250	 3.021976	-0.530681	-19.915500	 55.324710	 56.246360	-38.467880	-1.931551	 0.213912	-12.636890	 0.944547	-0.208630	-24.909330
-1.914068	-0.532895	 1.583997	-61.261140	 23.052950	 177.428500	 3.414830	 1.694225	 9.656965	-2.606379	 0.893879	-34.376520	-1.711578	 0.357989	-23.626300	 0.990966	-0.123805	-14.240100	-6.671168	-9.532443	-29.356300	 0.124580	-0.028559	-25.823400	 1.733262	-0.247776	-16.269290	-26.278090	-20.040990	-31.274610	 1.637192	-0.506844	-34.401410	 3.068650	-0.900609	-32.699690	-16.862500	-12.011560	-24.737730	 0.729486	-0.180900	-27.854540	 2.992993	-0.524136	-19.860800	 55.117680	 56.358180	-38.104690	-1.936401	 0.214608	-12.647790	 0.943104	-0.209108	-25.003950
-1.913309	-0.533525	 1.584772	-61.251530	 22.984610	 177.639800	 3.457696	 1.711745	 9.757751	-2.569365	 0.874460	-34.082810	-1.740071	 0.362062	-23.506460	 0.980944	-0.121517	-14.121810	-6.472195	-9.592642	-29.163800	 0.150596	-0.034206	-25.587960	 1.752537	-0.247923	-16.102770	-26.186560	-20.065620	-30.916180	 1.633517	-0.498634	-33.941750	 3.145957	-0.912974	-32.357800	-16.779860	-12.029280	-24.448470	 0.638976	-0.156593	-27.532310	 2.885808	-0.499640	-19.641670	 54.905840	 56.485070	-37.754010	-1.920396	 0.212515	-12.628810	 0.880694	-0.195415	-25.022250
-1.912819	-0.533889	 1.585133	-61.245800	 22.851080	 177.772900	 3.454569	 1.740550	 9.924108	-2.427947	 0.809524	-33.950230	-1.866673	 0.387843	-23.473010	 0.918126	-0.113083	-14.040500	-6.369353	-9.630984	-29.060780	 0.063058	-0.014344	-25.624050	 1.727260	-0.243872	-16.071150	-26.216360	-20.060350	-30.816410	 1.612038	-0.492427	-33.970140	 3.196863	-0.925821	-32.293680	-16.788670	-12.030670	-24.346490	 0.593631	-0.145387	-27.521040	 2.898135	-0.498966	-19.531360	 54.855790	 56.525230	-37.574270	-1.884454	 0.209526	-12.687830	 0.917792	-0.203619	-25.018460
-1.911843	-0.534335	 1.586264	-61.294250	 22.557810	 178.092100	 3.493158	 1.814890	 10.352840	-2.071471	 0.661158	-33.745800	-1.926403	 0.398929	-23.397210	 0.940054	-0.114961	-13.942680	-6.175934	-9.696113	-28.869820	 0.097866	-0.022281	-25.659850	 1.740011	-0.244324	-15.985020	-26.144400	-20.089740	-30.941530	 1.548325	-0.471815	-33.893420	 3.330390	-0.963269	-32.257030	-16.700080	-12.057370	-24.094950	 0.532520	-0.128981	-27.217690	 2.857736	-0.482372	-19.156970	 55.279680	 56.291130	-38.171890	-1.721743	 0.190789	-12.634910	 0.724355	-0.159756	-24.883310
-1.911400	-0.534584	 1.586670	-61.240810	 22.391750	 178.182800	 3.429184	 1.847387	 10.540930	-1.960633	 0.616833	-33.639330	-1.985070	 0.410795	-23.381520	 0.952936	-0.116652	-13.957730	-5.991244	-9.753040	-28.740460	 0.136365	-0.031060	-25.658810	 1.740786	-0.243670	-15.935110	-26.191440	-20.074770	-31.063800	 1.535175	-0.468972	-33.974520	 3.335160	-0.965434	-32.281270	-16.634950	-12.072420	-23.956720	 0.550327	-0.132423	-27.045170	 2.803736	-0.469087	-18.991570	 55.588310	 56.131470	-38.568370	-1.655828	 0.181507	-12.499810	 0.719569	-0.157959	-24.773780
